<?xml version="1.0" encoding="utf-8"?>
<!-- Generator: Adobe Illustrator 16.0.0, SVG Export Plug-In . SVG Version: 6.00 Build 0)  -->
<!DOCTYPE svg PUBLIC "-//W3C//DTD SVG 1.1//EN" "http://www.w3.org/Graphics/SVG/1.1/DTD/svg11.dtd">
<svg version="1.1" id="Layer_2" xmlns="http://www.w3.org/2000/svg" xmlns:xlink="http://www.w3.org/1999/xlink" x="0px" y="0px"
	 width="388.137px" height="199.25px" viewBox="0 -4.097 388.137 199.25" enable-background="new 0 -4.097 388.137 199.25"
	 xml:space="preserve">
<g id="tent">
	<path id="binnen-buitenzeil" fill="#1B7943" d="M31.637,107.403l46-1l80.5-87C158.137,19.403,135.637,20.903,31.637,107.403z"/>
	<path id="binnenzeil" fill="#C6BF9B" d="M149.637,15.903c0,0-74,84-79.5,91l-2,19.5c0,0,17,5,74.5,10.5c0,0,2.5-62.5,4-65
		c0,0-1,53.5-1.5,65c0,0,26.5,11,105,15c0,0,71-10,111-23l-2.5-14.5"/>
	<path id="binnenzeil-hoek" fill="#AFA88C" d="M250.637,121.903c0,0-1,18.5-0.5,27C250.137,148.903,252.637,142.903,250.637,121.903
		z"/>
	<path id="buitenzeil" fill="#208D4E" d="M31.637,107.403c0,0,115.5-93,116-111.5c0,0,65,16,74.5,10.5c0,0,9.5,9.5,48,10.5
		c0,0,73.5,77,118,97.5c0,0-120,25.5-124,26.5l-129.5-108.5C134.637,32.403,132.137,27.903,31.637,107.403z"/>
	<path id="buitenzeil-hoek" fill="#1B7943" d="M155.137,4.903c0,0,82.101,101.754,92.5,113
		C247.637,117.903,157.873,3.833,155.137,4.903z"/>
</g>
<g id="vuur">
	<g id="steen_1_">
		<path fill="#7A6F72" d="M40.96,157.493c0,0-9.033,3.312-18.281,3.862c-9.248,0.552,0,0,0,0s-5.808-3.495-6.021-6.255
			c0,0-0.431-2.943,0.86-7.357c0,0,14.624-3.863,19.355-3.127C36.873,144.616,42.465,149.03,40.96,157.493"/>
		<path fill="#6D6769" d="M36.873,150.133c0,0-6.668,2.023-12.688,2.394C24.185,152.526,33.862,150.685,36.873,150.133z"/>
		<path fill="#686365" d="M23.133,151.68c0,0-2.42-2.832-3.879-2.893C19.254,148.788,22.576,151.445,23.133,151.68z"/>
	</g>
	<g id="steen">
		<path fill="#7A6F72" d="M40.887,160.125c0,0,10.5,3.623,21.25,4.228s0,0,0,0s6.75-3.823,7-6.845c0,0,0.5-3.221-1-8.053
			c0,0-17-4.229-22.5-3.422C45.637,146.033,39.137,150.865,40.887,160.125"/>
		<path fill="#6D6769" d="M45.637,152.073c0,0,7.75,2.214,14.75,2.617C60.387,154.69,49.137,152.676,45.637,152.073z"/>
		<path fill="#686365" d="M61.609,153.765c0,0,2.812-3.1,4.508-3.167C66.115,150.598,62.255,153.506,61.609,153.765z"/>
	</g>
	<path fill="#7A6F72" d="M64.887,161.534c0,0,9-3.021,14.25-0.402c0,0,5.25,12.279-1.5,21.943c0,0-10.75,2.214-16-1.409
		c0,0,0-14.093,2.75-19.125"/>
	<path fill="#7A6F72" d="M17.881,157.833c0,0-8.464-3.897-14.076-1.825c0,0-7.104,11.659-1.897,21.922
		c0,0,10.325,3.272,16.094,0.203c0,0,2.175-13.981,0.223-19.252"/>
	<g id="Vlam">
		<path fill="#F4A616" d="M49.431,126.967c0,0-18.952,3.893-21.509,22.734c0,0-2.13-0.818-1.702-5.119c0,0-9.37,13.724-5.75,22.53
			c0,0-1.064,2.253-3.833-1.435c0,0,4.472,16.795,22.998,16.181c0,0,15.545,0,23.425-13.312c0,0-1.704,1.638-5.537,2.867
			c0,0,9.157-8.193,1.917-17.204c0,0-3.194-2.663-1.491-5.122c0,0-2.98,0.205-3.62,6.146c0,0-2.129-9.013-4.472-12.083
			C49.857,143.149,44.32,133.113,49.431,126.967z"/>
		<path fill="#F9CB0D" d="M36.07,181.877c0,0-19.901,0.134-5.008-31.561c0,0-2.116,4.8,2.569,7.518c0,0-4.062-19.205,8.848-23.888
			c0,0-3.45,6.112,3.438,14.904C45.914,148.852,67.948,182.42,36.07,181.877z"/>
		<path fill="#FCE170" d="M33.698,180.884c0,0-6.323-6.878,0.205-14.311c0,0-0.857,2.354,2.838,4.633c0,0-4.028-14.812,5.595-19.023
			c0,0-5.115,5.591,3.854,14.573c0,0,7.292,8.7-3.743,14.757C42.446,181.513,40.786,183.522,33.698,180.884z"/>
	</g>
	<path fill="#7A6F72" d="M16.125,175.325c0,0-5.329,8.675-2.663,14.87c0,0,0,3.719,19.532,4.958c0,0,6.216-4.958,2.663-16.73
		C35.657,178.422,26.78,172.227,16.125,175.325z"/>
	<path fill="#7A6F72" d="M40.054,193.508c0,0-4.61-6.127,0.2-16.267c0,0,13.329-5.492,21.966-1.999c0,0,8.778,9.316,3.584,15.941
		C65.804,191.185,50.483,194.216,40.054,193.508z"/>
	<path fill="#686365" d="M75.637,170.19c0,0,0.75-6.442,2.5-7.649C78.137,162.541,76.137,169.385,75.637,170.19z"/>
	<path fill="#686365" d="M13.348,167.573c0,0,1.03-6.02,2.578-7.852C15.926,159.722,14.551,164.956,13.348,167.573z"/>
	<path fill="#6D6769" d="M16.387,181.262c0,0,7.25,2.215,14,2.014C30.387,183.275,20.887,181.463,16.387,181.262z"/>
	<path fill="#6D6769" d="M45.346,182.477c0,0,7.746,0.272,14.077-1.623C59.423,180.854,49.696,181.533,45.346,182.477z"/>
	<path fill="#6D6769" d="M64.733,173.603c0,0,5.634,0.923,10.054-0.383C74.785,173.22,67.801,173.054,64.733,173.603z"/>
	<path fill="#6D6769" d="M2.753,169.581c0,0,5.402,1.582,10.015,0.817C12.768,170.398,5.889,169.404,2.753,169.581z"/>
</g>
</svg>
