<svg version="1.1" id="Welp" xmlns="http://www.w3.org/2000/svg" xmlns:xlink="http://www.w3.org/1999/xlink" x="0px" y="0px"
	 width="231.57px" height="548.806px" viewBox="65.36 32.921 231.57 548.806" enable-background="new 65.36 32.921 231.57 548.806"
	 xml:space="preserve">
<g id="Schaduw" opacity="0.1">
	<path d="M81.389,576.201c0,3.062,48.245,5.525,107.781,5.525c59.527,0,107.76-2.465,107.76-5.525
		c0-3.055-48.232-5.548-107.76-5.548C129.635,570.653,81.389,573.146,81.389,576.201z"/>
</g>
<path id="Rechter_been" fill="#D39C76" d="M131.413,493.633l-8.843,44.213l10.883,1.359c0,0,13.604-36.729,14.964-41.491"/>
<path id="Linker_been" fill="#D39C76" d="M235.484,497.373l8.844,44.213l-10.885,1.36c0,0-13.604-36.73-14.965-41.492"/>
<g id="Rechter_hand">
	<path fill="#D39C76" d="M75.603,434.089l13.735-0.442l2.56,3.646c0,0,3.931,2.161,5.833,4.34c1.924,2.184,5.066,5.068,5.339,8.675
		c0.377,3.614-3.446,4.464-5.009,3.064c-1.526-1.355-4.401-4.833-4.401-4.833s2.48,4.809-0.395,7.837
		c-2.914,3.032-20.919,0.925-21.645-2.816c-0.706-3.754-0.476-5.704-0.157-8.686c0.262-2.192,3.917-6.788,3.917-6.788
		L75.603,434.089L75.603,434.089z"/>
	<path fill="#D39C76" d="M80.454,395.412c-7.706,23.286-5.191,40.503-5.191,40.503l15.507,1.421
		c-0.431-16.921,3.044-30.292,8.354-40.798C113.548,368.001,86.901,375.928,80.454,395.412z"/>
</g>
<g id="Linker_hand">
	<path fill="#D39C76" d="M286.759,435.895l1.298,4.73c0,0,2.813,2.615,3.227,4.569c0.554,2.605,0.734,7.843,0.404,11.25
		c-0.328,3.397-1.584,6.496-2.612,7.918c-1.833,2.476-11.634,3.502-14.505,1.045c-2.813-2.466-2.771-15.188-2.771-15.188
		s-2.293,3.377-3.555,4.725c-1.271,1.342-4.729,0.896-4.745-2.338c0.026-3.261,2.571-6.07,4.103-8.181
		c1.556-2.118,4.852-4.348,4.852-4.348l1.982-3.44L286.759,435.895L286.759,435.895z"/>
	<path fill="#D39C76" d="M266.661,402.087c4.116,10.384,6.389,23.185,5.125,38.857l15.562-0.566c0,0,3.728-18.396-3.746-43.494
		C277.857,377.592,254.307,370.936,266.661,402.087z"/>
</g>
<path id="broek" fill="#224E02" d="M111,470.503c0,0-4.761,40.132-4.081,44.895l73.462-2.04l4.762-22.447l4.762,21.767l69.381-2.041
	c0,0-2.04-40.132-6.803-40.132C247.721,470.504,111,470.503,111,470.503z"/>

<g id="hemd">
	<path fill="#B5AC7F" d="M138.068,273.064c0,0-37.411,10.203-46.254,21.086c0,0-33.33,12.924-25.167,123.118l35.371-3.4
		c0,0,0,44.214,2.041,63.259c0,0,105.431,12.244,157.126-2.041c0,0,0.682-57.137-1.359-59.178c0,0,30.609,0.681,32.648-2.04
		c0,0-8.842-112.915-19.725-119.716c0,0,8.842-6.122-50.336-24.487C222.414,269.663,196.564,295.511,138.068,273.064z"/>
	<path fill="#CDC387" d="M157.794,394.48c0,3.943-3.198,7.142-7.144,7.142h-34.01c-3.945,0-7.142-3.197-7.142-7.142v-46.935
		c0-3.944,3.196-7.144,7.142-7.144h34.01c3.945,0,7.144,3.199,7.144,7.144V394.48z"/>
	<path fill="#CDC387" d="M251.663,394.141c0,3.944-3.196,7.143-7.144,7.143h-34.01c-3.943,0-7.142-3.197-7.142-7.143v-46.934
		c0-3.945,3.196-7.143,7.142-7.143h34.01c3.946,0,7.144,3.197,7.144,7.143V394.141z"/>
	<rect x="108.141" y="338.364" fill="#A89D6C" width="51.014" height="21.767"/>
	<rect x="202.007" y="337.684" fill="#A89D6C" width="49.655" height="21.768"/>
	<circle fill="#9E8E4A" cx="133.307" cy="353.329" r="3.741"/>
	<circle fill="#9E8E4A" cx="228.535" cy="353.328" r="3.741"/>
	<path id="schouderklep_links" fill="#A89D6C" d="M238.158,274.162c0,0,25,7,37.5,18c0,0,1.5,1-2.5,6c0,0-32.5-16-38-18.5
	S238.158,274.162,238.158,274.162z"/>
	<g id="schouderklep_rechts">
		<path fill="#A89D6C" d="M126.295,276.162c0,0-26.466,7.292-39.699,18.75c0,0-1.588,1.042,2.646,6.25
			c0,0,34.406-16.667,40.229-19.271S126.295,276.162,126.295,276.162z"/>
		
			<ellipse transform="matrix(0.4807 0.8769 -0.8769 0.4807 309.7869 40.8184)" fill="#9E8E4A" cx="120.429" cy="281.972" rx="2" ry="3"/>
	</g>
</g>
<g id="Das">
	<path fill="#7A6F72" d="M174.938,306.573c0,0-5.106,5.108-8.869,20.282c-4.702,18.961-7.303,53.642,4.789,113.718
		c0,0,17.004-34.691,12.924-110.193c0,0-4.762,77.544,18.365,106.112c0,0,15.646-82.305-16.324-129.239
		C185.822,307.253,181.061,303.853,174.938,306.573z"/>
	<path fill="#FF0000" d="M165.507,328.171c0,0,8.417,3.826,9.948,7.908c0,0,2.041,3.571,7.143,6.122c0,0,0.766,8.417,0,11.988
		c0,0-6.888-2.551-9.184-7.142c0,0-4.336-5.103-10.458-4.082"/>
	<path fill="#686163" d="M183.618,367.963c0,0-1.786-36.73-0.765-39.792C183.873,325.109,184.383,361.586,183.618,367.963"/>
	<path fill="#FF0000" d="M161.936,365.923c0,0,7.652,2.806,11.734,7.907c0,0,2.807,4.591,9.184,8.673c0,0-0.256,7.142-0.766,9.692
		s-7.908-2.04-10.203-6.121c0,0-2.806-7.143-9.438-5.102"/>
	<path fill="#FF0000" d="M165.507,409.029c0,0,3.826,0.767,7.397,4.848c0,0,1.785,3.316,4.336,5.612c0,0-2.309,12.069-6.383,21.084
		C170.857,440.573,165.507,422.04,165.507,409.029z"/>
	<path fill="#FF0000" d="M200.878,342.754c0,0-5.188,0.766-8.163,3.784c0,0-2.38,2.848-8.715,3.272c0,0-0.042,7.78-0.042,8.715
		c0,0,6.207,0.682,10.585-2.422c0,0,3.146-3.358,8.289-3.571C202.833,352.532,201.176,343.18,200.878,342.754z"/>
	<path fill="#FF0000" d="M205.619,376.381c0,0-6.824,2.615-8.546,5.484c0,0-2.296,4.018-11.224,6.186c0,0,1.467,10.203,1.658,10.586
		c0,0,8.417-1.531,11.605-4.654c0,0,3.509-3.826,6.761-3.892C205.874,390.091,205.874,376.827,205.619,376.381z"/>
	<path fill="#FF0000" d="M204.98,413.941c0,0-4.336,1.274-5.611,3.252c0,0-1.275,2.486-5.612,4.336c0,0,5.685,12.39,8.39,14.963
		C202.146,436.492,205.364,415.279,204.98,413.941z"/>
	<path fill="#75543B" d="M171.458,309.551c0,0,11.224,2.041,17.09-0.51c0,0,2.041-4.846-0.255-9.183c0,0-6.377-4.081-16.58-0.255
		C171.714,299.603,169.418,302.154,171.458,309.551z"/>
</g>
<g id="Hoofd__x28_by_Chartist.js_x29_">
	<path fill="#75543B" d="M200.3,201.625l-37.817,20.71l30.513,38.336l37.165-13.933C188.346,246.737,200.3,201.625,200.3,201.625
		L200.3,201.625z"/>
	<path fill="#B24949" d="M191.67,258.662l27.86-7.947c-13.271-23.9-44.456-9.948-44.456-9.948L191.67,258.662z"/>
	<path fill="#D39C76" d="M230.16,244.951c28.506,3.973,27.426,19.642,27.426,19.642c1.249,23.715-17.49,30.755-17.49,30.755
		c-60.371,24.564-114.754-18.573-114.754-18.573v-55.597c-5.045-1.303-10.09-5.948-12.928-12.671
		c-4.037-9.626-1.98-19.67,4.598-22.442c2.598-1.085,5.506-0.844,8.33,0.377V91.06c53.059-26.534,106.131,0,106.131,0l31.842,94.187
		l-45.104,1.994l3.309,29.856c-28.197,11.132-43.822-1.238-45.121-0.661c-3.75,1.647-3.43,21.308,8.023,28.876
		C192.463,250.628,214.305,254.549,230.16,244.951L230.16,244.951z"/>
	<path fill="#BF8862" d="M239.039,280.54c2.941,0,5.82-0.908,8.104-3.499c4.224-4.775,4.506-9.29,3.988-12.234
		c-0.605-3.559-2.771-6.786-5.67-8.367c-3.023-1.681-7.904-2.657-11.939-1.117c-2.644,0.98-4.541,2.938-5.498,5.603
		c-1.137,3.235-0.496,6.426,1.797,8.988c2.255,2.564,5.859,3.937,8.559,3.324c2.901-0.688,5.407-3.196,5.943-6.02
		c0.432-2.221-0.404-4.204-2.369-5.584c-1.557-1.076-3.045-1.419-4.404-1c-2.244,0.671-3.25,3.174-3.279,3.288l1.225,0.493
		c0.016-0.029,0.812-2.018,2.441-2.53c0.955-0.257,2.045,0,3.24,0.831c1.957,1.389,2.092,3.082,1.852,4.247
		c-0.441,2.3-2.562,4.444-4.944,4.996c-2.224,0.534-5.299-0.701-7.269-2.919c-1.135-1.27-2.854-3.949-1.537-7.648
		c0.849-2.346,2.41-3.963,4.716-4.831c3.667-1.392,8.086-0.49,10.821,1.036c2.531,1.404,4.463,4.252,5.021,7.433
		c0.452,2.662,0.191,6.731-3.693,11.131c-6.731,7.627-20.283-1.689-20.431-1.776l-0.75,1.085
		C225.377,275.773,232.318,280.54,239.039,280.54L239.039,280.54z"/>
	<g>
		<path fill="#634128" d="M181.107,132.651c-5.783,0-10.465,2.794-10.465,6.25c0,3.454,4.682,6.246,10.465,6.246
			c5.733,0,10.451-2.792,10.451-6.246C191.559,135.446,186.843,132.651,181.107,132.651z M213.52,132.651
			c-5.674,0-10.278,2.794-10.278,6.25c0,3.454,4.606,6.246,10.278,6.246c5.674,0,10.25-2.792,10.25-6.246
			C223.77,135.446,219.195,132.651,213.52,132.651z"/>
	</g>
</g>
<g id="Welpen_pet">
	<path fill="#1E3F01" d="M169.793,108.386c0,0,152.667,24,57.333-29.333"/>
	<path fill="#224E02" d="M121.793,101.884c0,0,4-70.666,62.667-67.333c0,0,44.667,0.666,57.667,54.333
		C242.126,88.884,207.46,127.884,121.793,101.884z"/>
	<path fill="none" stroke="#EAEA0C" stroke-miterlimit="10" d="M190.96,37.718c0,0-19.171,7.766-23.834,73"/>
	<path fill="none" stroke="#EAEA0C" stroke-miterlimit="10" d="M195.96,39.718c0,0,21.5,8.5,33,58.5"/>
	<path fill="none" stroke="#EAEA0C" stroke-miterlimit="10" d="M121.794,101.718"/>
	<path fill="none" stroke="#EAEA0C" stroke-miterlimit="10" d="M193.01,37.075c0,0-42.793-14.597-69.675,65.518"/>
	
		<ellipse transform="matrix(0.1118 -0.9937 0.9937 0.1118 132.4809 223.1109)" fill="#1E3F01" cx="191.046" cy="37.447" rx="4.5" ry="6.25"/>
</g>
<g id="Schoenen">
	<path fill="#75543B" d="M121.549,534.441l-2.041,6.122c0,0-17.685-4.763-13.944,8.502l27.208,0.341l3.401-13.604
		C136.173,535.802,122.91,535.462,121.549,534.441z"/>
	<path fill="#75543B" d="M245.168,536.481l2.04,6.121c0,0,17.687-4.762,13.944,8.503l-27.209,0.341l-3.4-13.604
		C230.543,537.842,243.807,537.502,245.168,536.481z"/>
</g>
</svg>
