<?xml version="1.0" encoding="utf-8"?>
<!-- Generator: Adobe Illustrator 16.0.0, SVG Export Plug-In . SVG Version: 6.00 Build 0)  -->
<!DOCTYPE svg PUBLIC "-//W3C//DTD SVG 1.1//EN" "http://www.w3.org/Graphics/SVG/1.1/DTD/svg11.dtd">
<svg version="1.1" id="Welp" xmlns="http://www.w3.org/2000/svg" xmlns:xlink="http://www.w3.org/1999/xlink" x="0px" y="0px"
	 width="231.57px" height="548.797px" viewBox="65.36 32.928 231.57 548.797" enable-background="new 65.36 32.928 231.57 548.797"
	 xml:space="preserve">
<g id="Schaduw" opacity="0.1">
	<path d="M81.389,576.202c0,3.061,48.244,5.523,107.78,5.523c59.527,0,107.761-2.465,107.761-5.523
		c0-3.055-48.232-5.549-107.761-5.549C129.635,570.653,81.389,573.147,81.389,576.202z"/>
</g>
<g id="figuur">
	<path id="Rechter_been" fill="#D39C76" d="M131.413,493.633l-8.843,44.213l10.883,1.359c0,0,13.604-36.73,14.964-41.492"/>
	<path id="Linker_been" fill="#D39C76" d="M235.484,497.374l8.844,44.213l-10.885,1.359c0,0-13.604-36.73-14.965-41.492"/>
	<g id="Rechter_hand">
		<path fill="#D39C76" d="M75.603,434.088l13.734-0.441l2.561,3.646c0,0,3.931,2.16,5.833,4.34c1.924,2.184,5.065,5.068,5.339,8.674
			c0.377,3.615-3.446,4.465-5.009,3.064c-1.526-1.355-4.401-4.832-4.401-4.832s2.48,4.809-0.395,7.836
			c-2.914,3.033-20.919,0.926-21.646-2.816c-0.706-3.754-0.476-5.703-0.157-8.686c0.263-2.191,3.917-6.787,3.917-6.787
			L75.603,434.088L75.603,434.088z"/>
		<path fill="#D39C76" d="M80.454,395.413c-7.706,23.285-5.19,40.502-5.19,40.502l15.507,1.422
			c-0.432-16.922,3.044-30.293,8.354-40.799C113.548,368,86.901,375.928,80.454,395.413z"/>
	</g>
	<g id="Linker_hand">
		<path fill="#D39C76" d="M286.759,435.895l1.299,4.73c0,0,2.812,2.615,3.227,4.568c0.554,2.605,0.734,7.844,0.404,11.25
			c-0.328,3.396-1.584,6.496-2.612,7.918c-1.833,2.477-11.634,3.502-14.505,1.045c-2.813-2.465-2.771-15.188-2.771-15.188
			s-2.293,3.377-3.555,4.725c-1.271,1.342-4.729,0.896-4.745-2.338c0.026-3.262,2.571-6.07,4.104-8.182
			c1.556-2.117,4.852-4.348,4.852-4.348l1.982-3.439L286.759,435.895L286.759,435.895z"/>
		<path fill="#D39C76" d="M266.661,402.086c4.116,10.385,6.389,23.186,5.125,38.857l15.562-0.566c0,0,3.728-18.395-3.746-43.494
			C277.857,377.592,254.307,370.936,266.661,402.086z"/>
	</g>
	<path id="broek" fill="#208D4E" d="M111,470.502c0,0-4.761,40.133-4.081,44.896l73.462-2.041l4.763-22.447l4.762,21.768
		l69.381-2.041c0,0-2.04-40.133-6.803-40.133C247.721,470.504,111,470.502,111,470.502z"/>
	<g id="hemd">
		<path fill="#B5AC7F" d="M138.068,273.064c0,0-37.411,10.203-46.254,21.086c0,0-33.33,12.925-25.167,123.118l35.371-3.4
			c0,0,0,44.215,2.041,63.26c0,0,105.431,12.244,157.126-2.041c0,0,0.682-57.137-1.359-59.178c0,0,30.609,0.68,32.648-2.041
			c0,0-8.843-112.914-19.726-119.716c0,0,8.842-6.122-50.336-24.487C222.414,269.663,196.564,295.51,138.068,273.064z"/>
		<path fill="#CDC387" d="M157.794,394.481c0,3.941-3.197,7.141-7.144,7.141h-34.01c-3.945,0-7.143-3.197-7.143-7.141v-46.936
			c0-3.945,3.196-7.145,7.143-7.145h34.01c3.945,0,7.144,3.199,7.144,7.145V394.481z"/>
		<path fill="#CDC387" d="M251.663,394.141c0,3.943-3.196,7.143-7.144,7.143h-34.011c-3.942,0-7.142-3.197-7.142-7.143v-46.934
			c0-3.945,3.196-7.143,7.142-7.143h34.011c3.945,0,7.144,3.195,7.144,7.143V394.141z"/>
		<rect x="108.141" y="338.364" fill="#A89D6C" width="51.014" height="21.768"/>
		<rect x="202.007" y="337.684" fill="#A89D6C" width="49.655" height="21.768"/>
		<circle fill="#9E8E4A" cx="133.307" cy="353.33" r="3.741"/>
		<circle fill="#9E8E4A" cx="228.535" cy="353.328" r="3.741"/>
		<path id="schouderklep_links" fill="#A89D6C" d="M238.158,274.162c0,0,25,7,37.5,18c0,0,1.5,1-2.5,6c0,0-32.5-16-38-18.5
			S238.158,274.162,238.158,274.162z"/>
		<g id="schouderklep_rechts">
			<path fill="#A89D6C" d="M126.295,276.163c0,0-26.466,7.291-39.698,18.75c0,0-1.589,1.041,2.646,6.25
				c0,0,34.406-16.668,40.229-19.271C135.294,279.288,126.295,276.163,126.295,276.163z"/>
			
				<ellipse transform="matrix(0.8769 -0.4807 0.4807 0.8769 -120.7257 92.6102)" fill="#9E8E4A" cx="120.416" cy="281.966" rx="3" ry="2"/>
		</g>
	</g>
	<g id="Das">
		<path fill="#7A6F72" d="M174.938,306.573c0,0-5.106,5.107-8.869,20.283c-4.702,18.961-7.303,53.641,4.789,113.717
			c0,0,17.004-34.691,12.924-110.193c0,0-4.762,77.545,18.365,106.113c0,0,15.646-82.305-16.324-129.24
			C185.822,307.252,181.061,303.852,174.938,306.573z"/>
		<path fill="#FF0000" d="M165.507,328.17c0,0,8.417,3.826,9.948,7.908c0,0,2.041,3.572,7.144,6.123c0,0,0.766,8.416,0,11.988
			c0,0-6.889-2.553-9.185-7.143c0,0-4.336-5.104-10.458-4.082"/>
		<path fill="#686163" d="M183.618,367.963c0,0-1.786-36.73-0.765-39.793C183.873,325.11,184.383,361.586,183.618,367.963"/>
		<path fill="#FF0000" d="M161.936,365.922c0,0,7.651,2.807,11.733,7.908c0,0,2.808,4.59,9.185,8.672c0,0-0.256,7.143-0.767,9.693
			c-0.51,2.549-7.907-2.041-10.203-6.121c0,0-2.806-7.145-9.438-5.104"/>
		<path fill="#FF0000" d="M165.507,409.03c0,0,3.826,0.766,7.397,4.848c0,0,1.785,3.316,4.336,5.611c0,0-2.309,12.068-6.383,21.084
			C170.857,440.573,165.507,422.04,165.507,409.03z"/>
		<path fill="#FF0000" d="M200.878,342.754c0,0-5.188,0.766-8.163,3.783c0,0-2.38,2.848-8.715,3.271c0,0-0.042,7.781-0.042,8.717
			c0,0,6.207,0.682,10.585-2.424c0,0,3.146-3.357,8.289-3.57C202.833,352.532,201.176,343.18,200.878,342.754z"/>
		<path fill="#FF0000" d="M205.619,376.381c0,0-6.824,2.615-8.546,5.484c0,0-2.296,4.018-11.224,6.186
			c0,0,1.467,10.203,1.657,10.586c0,0,8.417-1.531,11.605-4.654c0,0,3.509-3.826,6.761-3.893
			C205.874,390.09,205.874,376.827,205.619,376.381z"/>
		<path fill="#FF0000" d="M204.98,413.942c0,0-4.336,1.273-5.611,3.252c0,0-1.275,2.484-5.612,4.336c0,0,5.686,12.389,8.391,14.963
			C202.146,436.493,205.364,415.28,204.98,413.942z"/>
		<path fill="#75543B" d="M171.458,309.551c0,0,11.225,2.041,17.09-0.51c0,0,2.041-4.846-0.255-9.184c0,0-6.377-4.081-16.58-0.256
			C171.714,299.602,169.418,302.155,171.458,309.551z"/>
	</g>
	<g id="Hoofd__x28_by_Chartist.js_x29_">
		<path fill="#75543B" d="M200.3,201.625l-37.816,20.71l30.513,38.336l37.165-13.933C188.346,246.737,200.3,201.625,200.3,201.625
			L200.3,201.625z"/>
		<path fill="#B24949" d="M191.67,258.662l27.86-7.947c-13.271-23.9-44.456-9.948-44.456-9.948L191.67,258.662z"/>
		<path fill="#D39C76" d="M230.16,244.951c28.506,3.973,27.426,19.642,27.426,19.642c1.249,23.715-17.489,30.755-17.489,30.755
			c-60.371,24.564-114.755-18.573-114.755-18.573v-55.597c-5.045-1.303-10.09-5.948-12.928-12.671
			c-4.037-9.626-1.979-19.67,4.599-22.442c2.598-1.085,5.506-0.844,8.329,0.377V91.06c53.06-26.534,106.132,0,106.132,0
			l31.842,94.187l-45.104,1.994l3.31,29.856c-28.197,11.132-43.822-1.238-45.121-0.661c-3.75,1.647-3.43,21.308,8.022,28.876
			C192.463,250.628,214.305,254.549,230.16,244.951L230.16,244.951z"/>
		<path fill="#BF8862" d="M239.039,280.54c2.941,0,5.82-0.908,8.104-3.498c4.224-4.775,4.506-9.291,3.987-12.234
			c-0.604-3.559-2.771-6.786-5.67-8.367c-3.022-1.681-7.903-2.657-11.938-1.117c-2.645,0.98-4.541,2.938-5.498,5.603
			c-1.137,3.235-0.496,6.426,1.797,8.988c2.255,2.564,5.859,3.937,8.559,3.324c2.901-0.688,5.407-3.196,5.943-6.02
			c0.432-2.221-0.404-4.204-2.369-5.584c-1.557-1.076-3.045-1.419-4.404-1c-2.243,0.671-3.25,3.174-3.278,3.288l1.225,0.493
			c0.017-0.029,0.812-2.018,2.441-2.53c0.955-0.257,2.045,0,3.239,0.831c1.957,1.389,2.093,3.082,1.853,4.247
			c-0.441,2.3-2.562,4.444-4.944,4.996c-2.224,0.534-5.299-0.701-7.269-2.919c-1.135-1.27-2.854-3.949-1.537-7.648
			c0.849-2.346,2.41-3.963,4.716-4.831c3.667-1.392,8.086-0.49,10.821,1.036c2.531,1.404,4.463,4.252,5.021,7.433
			c0.452,2.662,0.191,6.731-3.692,11.13c-6.731,7.627-20.283-1.688-20.432-1.775l-0.75,1.085
			C225.377,275.773,232.318,280.54,239.039,280.54L239.039,280.54z"/>
		<g>
			<path fill="#634128" d="M181.107,132.651c-5.783,0-10.465,2.794-10.465,6.25c0,3.454,4.682,6.246,10.465,6.246
				c5.732,0,10.451-2.792,10.451-6.246C191.559,135.446,186.843,132.651,181.107,132.651z M213.52,132.651
				c-5.674,0-10.278,2.794-10.278,6.25c0,3.454,4.606,6.246,10.278,6.246c5.674,0,10.25-2.792,10.25-6.246
				C223.77,135.446,219.195,132.651,213.52,132.651z"/>
		</g>
	</g>
	<g id="Welpen_pet">
		<path fill="#1B7943" d="M169.793,108.386c0,0,152.667,24,57.333-29.333"/>
		<path fill="#208D4E" d="M121.793,101.884c0,0,4-70.666,62.667-67.333c0,0,44.667,0.666,57.667,54.333
			C242.126,88.884,207.46,127.884,121.793,101.884z"/>
		<path fill="none" stroke="#EAEA0C" stroke-miterlimit="10" d="M190.96,37.718c0,0-19.171,7.766-23.834,73"/>
		<path fill="none" stroke="#EAEA0C" stroke-miterlimit="10" d="M195.96,39.718c0,0,21.5,8.5,33,58.5"/>
		<path fill="none" stroke="#EAEA0C" stroke-miterlimit="10" d="M121.794,101.718"/>
		<path fill="none" stroke="#EAEA0C" stroke-miterlimit="10" d="M193.01,37.075c0,0-42.793-14.597-69.675,65.518"/>
		
			<ellipse transform="matrix(-0.9937 -0.1118 0.1118 -0.9937 376.7166 96.0355)" fill="#1B7943" cx="191.051" cy="37.455" rx="6.25" ry="4.5"/>
	</g>
	<g id="Schoenen">
		<path fill="#75543B" d="M121.549,534.442l-2.041,6.121c0,0-17.685-4.764-13.943,8.502l27.208,0.342l3.4-13.605
			C136.173,535.801,122.91,535.461,121.549,534.442z"/>
		<path fill="#75543B" d="M245.168,536.481l2.04,6.121c0,0,17.688-4.762,13.944,8.504l-27.209,0.34l-3.4-13.604
			C230.543,537.842,243.807,537.502,245.168,536.481z"/>
	</g>
</g>
</svg>
